<?xml version="1.0" standalone="no"?>
<!DOCTYPE svg PUBLIC "-//W3C//DTD SVG 20010904//EN"
 "http://www.w3.org/TR/2001/REC-SVG-20010904/DTD/svg10.dtd">
<svg version="1.0" xmlns="http://www.w3.org/2000/svg"
 width="2000.000000pt" height="3000.000000pt" viewBox="0 0 2000.000000 3000.000000"
 preserveAspectRatio="xMidYMid meet">
<metadata>
Created by potrace 1.16, written by Peter Selinger 2001-2019
</metadata>
<g transform="translate(0.000000,3000.000000) scale(0.100000,-0.100000)"
fill="#000000" stroke="none">
<path d="M0 15000 l0 -15000 10000 0 10000 0 0 15000 0 15000 -10000 0 -10000
0 0 -15000z m10766 9226 c712 -90 1243 -350 1687 -824 308 -330 511 -749 587
-1215 93 -569 13 -1145 -210 -1512 -154 -252 -528 -671 -1056 -1180 -765 -737
-956 -1031 -1044 -1600 -19 -124 -35 -322 -46 -567 l-6 -128 -561 0 -560 0 6
238 c9 363 45 644 117 927 86 339 200 569 434 882 203 272 411 491 1020 1078
331 319 462 484 586 740 117 241 155 410 154 685 -1 324 -68 579 -219 835
-233 397 -538 582 -1075 656 -123 17 -506 17 -630 0 -271 -36 -523 -119 -694
-229 -397 -254 -620 -659 -710 -1292 -14 -95 -23 -194 -42 -422 l-6 -78 -564
0 c-445 0 -564 3 -564 13 1 71 22 411 31 477 55 437 157 778 334 1118 129 246
275 444 484 652 462 461 1017 697 1801 764 107 9 631 -4 746 -18z m24 -8736
l0 -660 -630 0 -630 0 0 660 0 660 630 0 630 0 0 -660z"/>
</g>
</svg>
